<svg width="32" height="32" viewBox="0 0 32 32" fill="none" xmlns="http://www.w3.org/2000/svg">
<path d="M12.9285 16C12.9285 17.6914 14.2987 19.0625 15.9889 19.0625C17.6791 19.0625 19.0493 17.6914 19.0493 16C19.0493 14.3086 17.6791 12.9375 15.9889 12.9375C14.2987 12.9375 12.9285 14.3086 12.9285 16Z" fill="#4F4F4F"/>
<path d="M8.83176 10.5815C8.97888 10.1826 9.21358 9.82153 9.51854 9.52515C9.81472 9.21997 10.1753 8.98511 10.5742 8.83789C10.8977 8.71216 11.3837 8.5625 12.2788 8.52173C13.2472 8.47754 13.5375 8.46802 15.9889 8.46802C18.4406 8.46802 18.7309 8.47729 19.699 8.52148C20.5941 8.5625 21.0803 8.71216 21.4036 8.83789C21.8025 8.98511 22.1633 9.21997 22.4593 9.52515C22.7642 9.82153 22.9989 10.1824 23.1463 10.5815C23.2719 10.9053 23.4215 11.3918 23.4622 12.2876C23.5064 13.2563 23.5159 13.5469 23.5159 16.0002C23.5159 18.4534 23.5064 18.7439 23.4622 19.7129C23.4215 20.6086 23.2719 21.095 23.1463 21.4187C22.9989 21.8179 22.7645 22.1787 22.4595 22.4751C22.1633 22.7803 21.8027 23.0151 21.4038 23.1624C21.0803 23.2883 20.5941 23.438 19.699 23.4788C18.7309 23.5229 18.4408 23.5322 15.9891 23.5322C13.5372 23.5322 13.2469 23.5229 12.2791 23.4788C11.3839 23.438 10.8977 23.2883 10.5742 23.1624C9.77349 22.8533 9.14063 22.22 8.83176 21.4187C8.70612 21.095 8.55656 20.6086 8.51557 19.7129C8.47142 18.7439 8.46214 18.4534 8.46214 16.0002C8.46214 13.5469 8.47142 13.2563 8.51557 12.2876C8.55632 11.3918 8.70587 10.9053 8.83176 10.5815ZM15.9889 20.7178C18.5928 20.7178 20.7036 18.6057 20.7036 16C20.7036 13.3943 18.5928 11.2822 15.9889 11.2822C13.3852 11.2822 11.2744 13.3943 11.2744 16C11.2744 18.6057 13.3852 20.7178 15.9889 20.7178ZM11.088 12.1982C11.6965 12.1982 12.1898 11.7046 12.1898 11.0957C12.1898 10.4868 11.6965 9.99316 11.088 9.99316C10.4795 9.99316 9.98623 10.4868 9.98623 11.0957C9.98648 11.7046 10.4795 12.1982 11.088 12.1982Z" fill="#4F4F4F"/>
<path d="M15.9889 0C24.818 0 31.9778 7.16479 31.9778 16C31.9778 24.8352 24.818 32 15.9889 32C7.15981 32 -9.53674e-06 24.8352 -9.53674e-06 16C-9.53674e-06 7.16479 7.15981 0 15.9889 0ZM6.86314 19.7878C6.90755 20.7659 7.06296 21.4336 7.28985 22.0181C7.76681 23.2522 8.74172 24.2278 9.975 24.7051C10.5588 24.9321 11.2263 25.0874 12.2034 25.1321C13.1825 25.1768 13.4953 25.1875 15.9886 25.1875C18.4823 25.1875 18.7948 25.1768 19.7741 25.1321C20.7512 25.0874 21.4187 24.9321 22.0025 24.7051C22.6154 24.4744 23.1702 24.1128 23.6288 23.6453C24.0958 23.1865 24.4571 22.6311 24.6877 22.0181C24.9146 21.4338 25.07 20.7659 25.1144 19.7881C25.1595 18.8081 25.17 18.4951 25.17 16C25.17 13.5049 25.1595 13.1919 25.1146 12.2122C25.0702 11.2341 24.9151 10.5664 24.6882 9.98193C24.4576 9.3689 24.096 8.81348 23.6288 8.35474C23.1704 7.88721 22.6154 7.52563 22.0028 7.29492C21.4187 7.06787 20.7514 6.9126 19.7741 6.86792C18.795 6.82324 18.4823 6.8125 15.9889 6.8125C13.4955 6.8125 13.1827 6.82324 12.2037 6.86816C11.2263 6.9126 10.5591 7.06787 9.975 7.29468C9.36238 7.52539 8.80735 7.88721 8.34868 8.35474C7.88172 8.81372 7.52016 9.3689 7.28985 9.98193C7.06271 10.5664 6.90755 11.2341 6.8629 12.2122C6.81825 13.1919 6.80776 13.5049 6.80776 16C6.80776 18.4951 6.81825 18.8081 6.86314 19.7878Z" fill="#4F4F4F"/>
</svg>
