<svg width="88" height="50" viewBox="0 0 88 50" fill="none" xmlns="http://www.w3.org/2000/svg">
<path fill-rule="evenodd" clip-rule="evenodd" d="M26.8642 9.15727L25.5984 12.0926L27.5369 11.0024L26.8642 9.15727ZM28.2148 11.254L27.2773 8.68027L32.7326 8.50206L29.9891 14.8865L28.2148 11.254ZM36.0852 13.1672L33.5536 8.30811L39.9357 5.29413L36.7579 14.4462L36.0852 13.1672ZM33.1934 8.84277L30.5187 15.1328L35.545 13.3821L33.1934 8.84277ZM35.1796 17.7537L30.7465 15.5993L35.8151 13.8434L36.5937 15.332L44.3635 20.7677L35.1796 17.7537ZM45.4916 21.7216L35.4709 18.3879L37.5418 31.4555L45.4916 21.7216ZM44.1411 19.9395L37.404 15.1852L39.6285 14.1369L44.1411 19.9395ZM40.5819 5.0897L37.261 14.6086L39.4643 13.5603L51.7679 8.41819L40.5819 5.0897ZM36.8744 6.08563L40.37 4.44497L43.9769 5.53525L47.8274 0.817707L36.3713 3.10833L36.8744 6.08563ZM32.6373 7.92547H32.9551L36.3183 6.35295L35.8628 3.59057L32.6373 7.92547ZM53.4256 8.3448L40.1264 13.922L46.2437 21.7112L37.1869 32.7921L34.8406 18.2097L29.7984 15.7933L27.7381 11.5475L24.4385 13.3978L26.6947 8.1561L31.8958 7.99361L35.8522 2.68376L49.2468 0L44.5648 5.76588L53.4256 8.3448Z" fill="#4F4F4F"/>
<path d="M6.875 37.2737C8.61458 37.2737 10.0703 37.8544 11.2422 39.0159C12.4141 40.1773 13 41.607 13 43.3049C13 44.9872 12.4141 46.4143 11.2422 47.5862C10.0755 48.7581 8.65104 49.344 6.96875 49.344C5.26562 49.344 3.82812 48.7607 2.65625 47.594C1.48438 46.4273 0.898438 45.0159 0.898438 43.3596C0.898438 42.2555 1.16406 41.232 1.69531 40.2893C2.23177 39.3466 2.96094 38.6096 3.88281 38.0784C4.80469 37.5419 5.80208 37.2737 6.875 37.2737ZM6.92969 38.3987C6.08073 38.3987 5.27604 38.62 4.51562 39.0627C3.75521 39.5055 3.16146 40.1018 2.73438 40.8518C2.30729 41.6018 2.09375 42.4377 2.09375 43.3596C2.09375 44.7242 2.5651 45.8778 3.50781 46.8206C4.45573 47.7581 5.59635 48.2268 6.92969 48.2268C7.82031 48.2268 8.64323 48.0107 9.39844 47.5784C10.1589 47.1461 10.75 46.5549 11.1719 45.8049C11.599 45.0549 11.8125 44.2216 11.8125 43.3049C11.8125 42.3935 11.599 41.5706 11.1719 40.8362C10.75 40.0966 10.1536 39.5055 9.38281 39.0627C8.61198 38.62 7.79427 38.3987 6.92969 38.3987ZM16.1672 37.5627H18.4563C19.7323 37.5627 20.5969 37.6148 21.05 37.719C21.7323 37.8752 22.287 38.2112 22.7141 38.7268C23.1411 39.2372 23.3547 39.8674 23.3547 40.6174C23.3547 41.2424 23.2063 41.7919 22.9094 42.2659C22.6177 42.7398 22.1984 43.0992 21.6516 43.344C21.1047 43.5836 20.3495 43.706 19.3859 43.7112L23.5188 49.0549H22.0969L17.9719 43.7112H17.3156V49.0549H16.1672V37.5627ZM17.3156 38.6877V42.594L19.2922 42.6096C20.0578 42.6096 20.6229 42.5367 20.9875 42.3909C21.3573 42.245 21.6438 42.0133 21.8469 41.6956C22.0552 41.3726 22.1594 41.0133 22.1594 40.6174C22.1594 40.232 22.0552 39.8831 21.8469 39.5706C21.6385 39.2528 21.3651 39.0263 21.0266 38.8909C20.688 38.7555 20.1255 38.6877 19.3391 38.6877H17.3156ZM26.4594 37.5627H27.6078V49.0549H26.4594V37.5627ZM42.1344 39.4924L41.2437 40.3362C40.6031 39.706 39.9 39.2294 39.1344 38.9065C38.374 38.5784 37.6318 38.4143 36.9078 38.4143C36.0068 38.4143 35.1474 38.6357 34.3297 39.0784C33.5172 39.5211 32.887 40.1226 32.4391 40.8831C31.9911 41.6383 31.7672 42.4377 31.7672 43.2815C31.7672 44.1461 31.999 44.969 32.4625 45.7502C32.926 46.5263 33.5667 47.1383 34.3844 47.5862C35.2021 48.0289 36.0979 48.2502 37.0719 48.2502C38.2542 48.2502 39.2542 47.9169 40.0719 47.2502C40.8896 46.5836 41.374 45.719 41.525 44.6565H37.8609V43.5471H42.8141C42.8036 45.3232 42.275 46.7346 41.2281 47.7815C40.1865 48.8232 38.7906 49.344 37.0406 49.344C34.9156 49.344 33.2333 48.62 31.9937 47.1721C31.0406 46.0575 30.5641 44.7685 30.5641 43.3049C30.5641 42.2164 30.8375 41.2034 31.3844 40.2659C31.9312 39.3284 32.6812 38.5966 33.6344 38.0706C34.5875 37.5393 35.6656 37.2737 36.8687 37.2737C37.8427 37.2737 38.7594 37.4508 39.6187 37.8049C40.4781 38.1539 41.3167 38.7164 42.1344 39.4924ZM50.4969 37.5627L55.8563 49.0549H54.6219L52.8172 45.2737H47.8641L46.0672 49.0549H44.7859L50.2156 37.5627H50.4969ZM50.3563 40.0002L48.3797 44.1643H52.3094L50.3563 40.0002ZM57.9219 49.0549L59.5547 37.5627H59.7422L64.4141 46.9924L69.0391 37.5627H69.2266L70.875 49.0549H69.7422L68.6172 40.8362L64.5547 49.0549H64.2656L60.1484 40.7737L59.0312 49.0549H57.9219ZM73.7844 37.5627H74.9328V49.0549H73.7844V37.5627Z" fill="#4F4F4F"/>
</svg>
