<svg width="33" height="33" viewBox="0 0 33 33" fill="none" xmlns="http://www.w3.org/2000/svg">
<g clip-path="url(#clip0)">
<path d="M16.3303 0.459473C7.5002 0.459473 0.341431 7.62289 0.341431 16.4595C0.341431 25.2961 7.5002 32.4595 16.3303 32.4595C25.1604 32.4595 32.3192 25.2961 32.3192 16.4595C32.3192 7.62289 25.1604 0.459473 16.3303 0.459473ZM24.4407 18.1899C25.186 18.9183 25.9744 19.6038 26.6434 20.4075C26.9398 20.763 27.2191 21.1307 27.4318 21.5441C27.7354 22.1337 27.4612 22.7803 26.9339 22.8153L23.6582 22.8146C22.8123 22.8847 22.139 22.5432 21.5714 21.9645C21.1183 21.5032 20.698 21.0105 20.2616 20.5335C20.0833 20.3378 19.8955 20.1535 19.6717 20.0084C19.2252 19.7177 18.8372 19.8068 18.5814 20.2736C18.3206 20.7486 18.2611 21.275 18.2362 21.8037C18.2006 22.5766 17.9677 22.7786 17.1927 22.815C15.5367 22.8925 13.9654 22.6411 12.5051 21.8057C11.2168 21.0688 10.2197 20.0287 9.35083 18.8512C7.65887 16.5557 6.36307 14.0363 5.19878 11.4446C4.93675 10.8609 5.12845 10.5486 5.77193 10.5364C6.84102 10.5158 7.91011 10.5184 8.9792 10.5355C9.41429 10.5423 9.70217 10.7915 9.86934 11.2023C10.4471 12.6247 11.1553 13.978 12.0428 15.2332C12.2794 15.5674 12.5208 15.9007 12.8646 16.1367C13.2441 16.3973 13.5333 16.3112 13.7122 15.8872C13.8267 15.6178 13.8761 15.3297 13.901 15.041C13.9861 14.052 13.9962 13.0634 13.849 12.0783C13.7574 11.4619 13.4109 11.0638 12.7969 10.9473C12.4842 10.888 12.53 10.7721 12.6821 10.5934C12.9461 10.2844 13.1934 10.0932 13.6877 10.0932L17.3886 10.0925C17.9719 10.2071 18.1028 10.469 18.1819 11.057L18.1852 15.1726C18.1783 15.4001 18.2994 16.0745 18.7076 16.2234C19.0348 16.3315 19.2507 16.0689 19.4463 15.8617C20.3338 14.9192 20.9662 13.8068 21.5325 12.6555C21.7824 12.1477 21.998 11.6223 22.2074 11.0959C22.3631 10.7067 22.6052 10.5152 23.0442 10.5217L26.608 10.526C26.7131 10.526 26.8197 10.527 26.9237 10.545C27.5244 10.6477 27.6889 10.9064 27.5031 11.4927C27.2106 12.4139 26.6424 13.1812 26.0869 13.9505C25.4915 14.7742 24.8565 15.569 24.267 16.3963C23.7253 17.1525 23.7681 17.5332 24.4407 18.1899Z" fill="#4F4F4F"/>
</g>
<defs>
<clipPath id="clip0">
<rect width="31.9778" height="32" fill="white" transform="translate(0.341431 0.459473)"/>
</clipPath>
</defs>
</svg>
